<?xml version="1.0" encoding="utf-8"?>
<!-- Generator: Adobe Illustrator 18.0.0, SVG Export Plug-In . SVG Version: 6.00 Build 0)  -->
<!DOCTYPE svg PUBLIC "-//W3C//DTD SVG 1.1//EN" "http://www.w3.org/Graphics/SVG/1.1/DTD/svg11.dtd">
<svg version="1.1" id="Layer_1" xmlns="http://www.w3.org/2000/svg" xmlns:xlink="http://www.w3.org/1999/xlink" x="0px" y="0px"
	 viewBox="0 0 936 612" enable-background="new 0 0 936 612" xml:space="preserve">
<g>
	<g>
		<g>
			<rect x="340.5" y="451.3" fill="#5C6670" width="31.2" height="57.6"/>
			<rect x="340.5" y="509" fill="#2D3740" width="31.2" height="12.4"/>
		</g>
		<path fill="#C8C9C9" d="M311.1,368.8c0-24.8,20.1-44.9,44.9-44.9S401,344,401,368.8V422c0,24.8-20.1,44.9-44.9,44.9
			c-24.8,0-44.9-20.1-44.9-44.9V368.8z"/>
	</g>
	<g>
		<g>
			<rect x="562.7" y="451.3" fill="#5C6670" width="31.2" height="57.6"/>
			<rect x="562.7" y="509" fill="#2D3740" width="31.2" height="12.4"/>
		</g>
		<path fill="#C8C9C9" d="M533.4,368.8c0-24.8,20.1-44.9,44.9-44.9c24.8,0,44.9,20.1,44.9,44.9V422c0,24.8-20.1,44.9-44.9,44.9
			c-24.8,0-44.9-20.1-44.9-44.9V368.8z"/>
	</g>
	<g>
		<g>
			<rect x="284" y="451.3" fill="#7D868C" width="31.2" height="57.6"/>
			<rect x="284" y="509" fill="#333E48" width="31.2" height="12.4"/>
		</g>
		<path fill="#DADBDC" d="M254.6,368.8c0-24.8,20.1-44.9,44.9-44.9c24.8,0,44.9,20.1,44.9,44.9V422c0,24.8-20.1,44.9-44.9,44.9
			c-24.8,0-44.9-20.1-44.9-44.9V368.8z"/>
	</g>
	<g>
		<g>
			<rect x="506.2" y="451.3" fill="#7D868C" width="31.2" height="57.6"/>
			<rect x="506.2" y="509" fill="#333E48" width="31.2" height="12.4"/>
		</g>
		<path fill="#DADBDC" d="M476.9,368.8c0-24.8,20.1-44.9,44.9-44.9c24.8,0,44.9,20.1,44.9,44.9V422c0,24.8-20.1,44.9-44.9,44.9
			c-24.8,0-44.9-20.1-44.9-44.9V368.8z"/>
	</g>
	<path fill="#DADBDC" d="M680.7,307.1c0-11.5-4.9-21.9-12.7-29.2c-1.2-52.8-29.5-98.8-71.5-124.8c0.3-2,0.4-4,0.4-6
		c0-22.1-17.9-40-40-40c-3.5,0-6.8,0.4-10.1,1.3c-7.3-8.3-18-13.5-29.9-13.5c-12.7,0-24,5.9-31.4,15.2c-12.1-12-28.8-19.4-47.2-19.4
		c-14.7,0-28.3,4.7-39.3,12.7c-7.3-7.8-17.7-12.7-29.3-12.7c-17.9,0-33.1,11.8-38.2,28.1c-9.5-5.1-20.4-8.1-31.9-8.1
		c-24.5,0-46,13.2-57.7,32.8c-3.8-2.4-8.2-3.8-13-3.8c-3,0-5.8,0.6-8.4,1.5c-3.5-5.1-9.4-8.5-16.1-8.5c-6.1,0-11.5,2.8-15.1,7.1
		c-0.9-0.1-1.7-0.1-2.6-0.1c-13.6,0-24.5,11-24.5,24.5c0,13.6,11,24.5,24.5,24.5c3.7,0,7.1-0.8,10.2-2.3c-2.8,5.4-4.4,11.5-4.5,17.9
		c-14.8,12.3-24.3,30.9-24.3,51.7c0,17.8,6.9,33.9,18.2,45.9c-3.4,8-5.3,16.9-5.3,26.2c0,34.4,25.8,62.7,59.2,66.7
		c26.5,23.1,61.1,37.1,99,37.1h1.4c5,2.2,10.4,3.4,16.2,3.4s11.3-1.2,16.2-3.4h12.8c12.9,12,30.2,19.4,49.1,19.4
		c19,0,36.3-7.4,49.2-19.4h33.4c23.5,0,45.7-5.4,65.6-15c4.7,1,9.6,1.6,14.6,1.6c37.1,0,67.2-30.1,67.2-67.2c0-4-0.4-7.8-1-11.6
		C673.9,332.6,680.7,320.7,680.7,307.1z"/>
	<g>
		<path fill="#5C6670" d="M714,132.8c33.1,0,60,26.9,60,60c0,33.1-26.9,60-60,60h-71.1c-33.1,0-60-26.9-60-60c0-33.1,26.9-60,60-60
			C642.9,132.8,714,132.8,714,132.8z"/>
		<circle fill="#333E48" cx="686.4" cy="177.8" r="9.3"/>
		<path fill="#DADBDC" d="M667,100.6c-7.9,0-15,3.2-20.2,8.4c-7.3-9.8-19-16.2-32.1-16.2c-22.1,0-40,17.9-40,40c0,0.2,0,0.4,0,0.7
			C542,138,516.8,166,516.8,200c0,37.1,30.1,67.2,67.2,67.2c5.6,0,11.1-0.7,16.3-2c4.6,9.6,14.4,16.3,25.8,16.3
			c15.8,0,28.6-12.8,28.6-28.6c0-9.1-4.3-17.2-10.9-22.4c4.7-9.1,7.3-19.5,7.3-30.5c0-13.4-4-26-10.8-36.5c3.8-3.2,7.1-7.1,9.5-11.5
			c4.8,3.6,10.8,5.8,17.2,5.8c15.8,0,28.6-12.8,28.6-28.6S682.8,100.6,667,100.6z"/>
		<path fill="#5C6670" d="M616.4,184.2l6.2,28.6c1.5,7.1-3,14.1-10.1,15.6c-7.1,1.5-14.1-3-15.6-10.1c-0.4-1.9-0.4-3.8,0-5.6
			l6.2-28.6c0.8-3.7,4.4-6,8.1-5.2C613.8,179.5,615.8,181.6,616.4,184.2z"/>
		<path fill="#333E48" d="M704.4,215.7c0,17.1,16.2,31,36.2,31"/>
	</g>
</g>
</svg>
